<svg width="24" height="25" viewBox="0 0 24 25" fill="none" xmlns="http://www.w3.org/2000/svg">
<g id="Solid arrow right sm">
<g id="Vector">
<path d="M12 2.5C12.5523 2.5 13 2.94772 13 3.5L13 15.6716C13.1127 15.6317 13.2236 15.5849 13.332 15.5312C13.7361 15.331 14.1453 14.9405 15.2929 13.7929C15.6834 13.4024 16.3166 13.4024 16.7071 13.7929C17.0976 14.1834 17.0976 14.8166 16.7071 15.2071L16.5714 15.3429C15.613 16.3021 14.9581 16.9575 14.2201 17.3232C12.8212 18.0164 11.1788 18.0164 9.77992 17.3232C9.04193 16.9575 8.38702 16.3021 7.42858 15.3429L7.2929 15.2071C6.90237 14.8166 6.90237 14.1834 7.2929 13.7929C7.68342 13.4024 8.31658 13.4024 8.70711 13.7929C9.8547 14.9405 10.2639 15.331 10.668 15.5312C10.7764 15.5849 10.8873 15.6317 11 15.6716L11 3.5C11 2.94772 11.4477 2.5 12 2.5Z" fill="white"/>
<path d="M4 13.5C4 12.9477 3.55229 12.5 3 12.5C2.44772 12.5 2 12.9477 2 13.5V15.1428C1.99999 16.2266 1.99998 17.1007 2.05782 17.8086C2.11737 18.5375 2.24318 19.1777 2.54497 19.77C3.02434 20.7108 3.78924 21.4757 4.73005 21.955C5.32234 22.2568 5.96253 22.3826 6.69138 22.4422C7.39926 22.5 8.27342 22.5 9.35722 22.5H14.6428C15.7266 22.5 16.6007 22.5 17.3086 22.4422C18.0375 22.3826 18.6777 22.2568 19.27 21.955C20.2108 21.4757 20.9757 20.7108 21.455 19.77C21.7568 19.1777 21.8826 18.5375 21.9422 17.8086C22 17.1008 22 16.2267 22 15.1429V13.5C22 12.9477 21.5523 12.5 21 12.5C20.4477 12.5 20 12.9477 20 13.5V15.1C20 16.2366 19.9992 17.0289 19.9488 17.6458C19.8994 18.2509 19.8072 18.5986 19.673 18.862C19.3854 19.4265 18.9265 19.8854 18.362 20.173C18.0986 20.3072 17.7509 20.3994 17.1458 20.4488C16.5289 20.4992 15.7366 20.5 14.6 20.5H9.4C8.2634 20.5 7.47108 20.4992 6.85424 20.4488C6.24907 20.3994 5.90138 20.3072 5.63803 20.173C5.07354 19.8854 4.6146 19.4265 4.32698 18.862C4.19279 18.5986 4.10062 18.2509 4.05118 17.6458C4.00078 17.0289 4 16.2366 4 15.1V13.5Z" fill="white"/>
</g>
</g>
</svg>
