<svg width="196" height="136" viewBox="0 0 196 136" fill="none" xmlns="http://www.w3.org/2000/svg">
<g id="Component">
<path id="Vector" d="M46.6629 84.5506C44.5118 84.9221 42.3228 85.0334 40.0584 85.33L33.1517 65.4395V86.1837C31.0005 86.4063 29.038 86.7031 27 87V49H32.7368L40.5867 70.5609V49H46.6629V84.5506ZM58.5513 62.916C60.8914 62.916 64.4768 62.8047 66.6279 62.8047V68.742C63.9482 68.742 60.8159 68.742 58.5513 68.8534V77.6856C62.0991 77.463 65.6467 77.1659 69.2319 77.0545V82.769L52.5127 84.0681V49H69.2319V54.9375H58.5513V62.916ZM91.6877 54.9376H85.4228V82.2501C83.3847 82.2501 81.3467 82.2501 79.3845 82.3241V54.9376H73.1196V49H91.688L91.6877 54.9376ZM101.5 62.5079H109.766V68.4453H101.5V81.9162H95.5745V49H112.445V54.9375H101.5V62.5079ZM122.258 76.7207C125.692 76.7947 129.164 77.0549 132.523 77.2401V83.1035C127.126 82.7693 121.729 82.4357 116.219 82.3241V49H122.258V76.7207ZM137.618 83.5117C139.543 83.6232 141.581 83.7346 143.543 83.9569V49H137.618V83.5117ZM170 49L162.338 67.0723L170 87C167.735 86.7031 165.471 86.2949 163.206 85.9237L158.866 74.9396L154.451 85.0334C152.262 84.662 150.148 84.5506 147.96 84.2538L155.734 66.8495L148.714 49H155.205L159.168 58.9824L163.395 49H170Z" fill="#647067"/>
</g>
</svg>
